<?xml version="1.0" encoding="UTF-8"?>
<!DOCTYPE svg PUBLIC "-//W3C//DTD SVG 1.1//EN" "http://www.w3.org/Graphics/SVG/1.1/DTD/svg11.dtd">
<!-- Creator: CorelDRAW -->
<svg xmlns="http://www.w3.org/2000/svg" xml:space="preserve" width="7.33333in" height="7.33333in" style="shape-rendering:geometricPrecision; text-rendering:geometricPrecision; image-rendering:optimizeQuality; fill-rule:evenodd; clip-rule:evenodd"
viewBox="0 0 7.33333 7.33333"
 xmlns:xlink="http://www.w3.org/1999/xlink">
 <defs>
  <style type="text/css">
   <![CDATA[
    .fil3 {fill:url(#id0)}
    .fil1 {fill:url(#id1);fill-rule:nonzero}
    .fil0 {fill:url(#id2);fill-rule:nonzero}
    .fil2 {fill:url(#id3);fill-rule:nonzero}
   ]]>
  </style>
  <linearGradient id="id0" gradientUnits="userSpaceOnUse" x1="-3.93701e-006" y1="3.66667" x2="7.33333" y2="3.66667">
   <stop offset="0" style="stop-color:#E4877C"/>
   <stop offset="1" style="stop-color:#B03686"/>
  </linearGradient>
  <linearGradient id="id1" gradientUnits="userSpaceOnUse" xlink:href="#id0" x1="1.10667" y1="2.74456" x2="4.38245" y2="2.74456">
  </linearGradient>
  <linearGradient id="id2" gradientUnits="userSpaceOnUse" xlink:href="#id0" x1="3.77935" y1="4.14453" x2="4.43266" y2="4.14453">
  </linearGradient>
  <linearGradient id="id3" gradientUnits="userSpaceOnUse" xlink:href="#id0" x1="3.9938" y1="5.11023" x2="6.22666" y2="5.11023">
  </linearGradient>
 </defs>
 <g id="Layer_x0020_1">
  <metadata id="CorelCorpID_0Corel-Layer"/>
  <path class="fil0" d="M3.92372 3.84911c-0.0312362,-0.0312362 -0.0818898,-0.0312362 -0.113126,0 -0.0312362,0.0312362 -0.0312362,0.0818898 0,0.113126l0.477709 0.477713c0.0312362,0.0312362 0.0818898,0.0312362 0.113126,0 0.0312362,-0.0312362 0.0312362,-0.0818898 0,-0.113126l-0.477709 -0.477713z"/>
  <path class="fil1" d="M1.58641 1.5864c0.319819,-0.319819 0.738992,-0.479732 1.15816,-0.479732 0.419161,0 0.838339,0.159913 1.15816,0.479732 0.319819,0.319819 0.479732,0.738992 0.479732,1.15816 0,0.419161 -0.159913,0.838339 -0.479732,1.15816 -0.319819,0.319819 -0.738996,0.479732 -1.15816,0.479732 -0.419165,0 -0.838339,-0.159913 -1.15816,-0.479732 -0.319819,-0.319819 -0.479732,-0.738996 -0.479732,-1.15816 0,-0.419165 0.159913,-0.838339 0.479732,-1.15816zm1.15816 -0.319732c-0.378232,0 -0.756461,0.144287 -1.04503,0.432858 -0.288571,0.288571 -0.432858,0.666799 -0.432858,1.04503 0,0.378228 0.144287,0.756461 0.432858,1.04503 0.288571,0.288571 0.666799,0.432858 1.04503,0.432858 0.378228,0 0.756461,-0.144287 1.04503,-0.432858 0.288571,-0.288571 0.432858,-0.666803 0.432858,-1.04503 0,-0.378232 -0.144287,-0.756461 -0.432858,-1.04503 -0.288571,-0.288571 -0.666803,-0.432858 -1.04503,-0.432858z"/>
  <path class="fil2" d="M4.02534 4.58978l0.56474 -0.56474 -3.93701e-006 -3.93701e-006c0.0312402,-0.0312402 0.0818937,-0.0312402 0.113134,0l0.000287402 0.000295276 1.48888 1.48888 7.87402e-006 7.87402e-006 3.93701e-006 -3.93701e-006c0.00245669,0.00245669 0.00472047,0.00503937 0.00679134,0.00771654 0.0183189,0.0217205 0.0274843,0.0484843 0.0274843,0.0751417 0,0.0297795 -0.0114331,0.059685 -0.0342795,0.0825433l-0.0326614 -0.0324803 -9.05512e-005 2.75591e-005 0.0327717 0.032752 -0.000326772 0.000318898 -0.51213 0.512134c-0.0228504,0.0228504 -0.0528937,0.0342874 -0.0828622,0.0342874 -0.0297795,0 -0.059689,-0.0114331 -0.0825551,-0.0342874l0.056252 -0.056563 -0.0565512 0.0565827 -0.000318898 -0.000326772 -1.48886 -1.48886 -3.93701e-006 3.93701e-006c-0.0312402,-0.0312402 -0.0312402,-0.0818937 0,-0.113134l0.000295276 -0.000287402zm0.621303 -0.395051l-0.451906 0.451906 1.40234 1.40234 0.451906 -0.451906 -1.40234 -1.40234z"/>
  <path class="fil3" d="M1.28486 0l4.76361 0c0.706677,0 1.28486,0.578185 1.28486,1.28486l0 4.76361c0,0.706677 -0.578185,1.28486 -1.28486,1.28486l-4.76361 0c-0.706677,0 -1.28486,-0.578185 -1.28486,-1.28486l0 -4.76361c0,-0.706677 0.578185,-1.28486 1.28486,-1.28486zm3.93701e-006 0.321209l4.76361 0c0.530008,0 0.96365,0.433642 0.96365,0.96365l0 4.76361c0,0.530008 -0.433642,0.96365 -0.96365,0.96365l-4.76361 0c-0.530008,0 -0.96365,-0.433642 -0.96365,-0.96365l0 -4.76361c0,-0.530008 0.433642,-0.96365 0.96365,-0.96365z"/>
 </g>
</svg>
